<?xml version="1.0" encoding="UTF-8"?>
<svg xmlns="http://www.w3.org/2000/svg" xmlns:xlink="http://www.w3.org/1999/xlink" width="2048pt" height="2048pt" viewBox="0 0 2048 2048" version="1.1">
<g id="surface4">
<path style=" stroke:none;fill-rule:evenodd;fill:rgb(0%,0%,0%);fill-opacity:1;" d="M 1242.90625 1023.5 C 1242.90625 1015.910156 1239.890625 1008.628906 1234.523438 1003.265625 C 1229.15625 997.898438 1221.878906 994.882812 1214.289062 994.882812 C 1206.699219 994.882812 1199.417969 997.898438 1194.050781 1003.265625 C 1188.683594 1008.628906 1185.671875 1015.910156 1185.671875 1023.5 C 1185.671875 1031.089844 1188.683594 1038.371094 1194.050781 1043.734375 C 1199.417969 1049.101562 1206.699219 1052.117188 1214.289062 1052.117188 C 1221.878906 1052.117188 1229.15625 1049.101562 1234.523438 1043.734375 C 1239.890625 1038.371094 1242.90625 1031.089844 1242.90625 1023.5 Z M 1242.90625 1023.5 "/>
<path style=" stroke:none;fill-rule:evenodd;fill:rgb(0%,0%,0%);fill-opacity:1;" d="M 1147.511719 858.273438 C 1147.511719 850.683594 1144.496094 843.402344 1139.128906 838.035156 C 1133.761719 832.667969 1126.484375 829.652344 1118.894531 829.652344 C 1111.304688 829.652344 1104.023438 832.667969 1098.65625 838.035156 C 1093.292969 843.402344 1090.277344 850.683594 1090.277344 858.273438 C 1090.277344 865.863281 1093.292969 873.140625 1098.65625 878.507812 C 1104.023438 883.875 1111.304688 886.890625 1118.894531 886.890625 C 1126.484375 886.890625 1133.761719 883.875 1139.128906 878.507812 C 1144.496094 873.140625 1147.511719 865.863281 1147.511719 858.273438 Z M 1147.511719 858.273438 "/>
<path style=" stroke:none;fill-rule:evenodd;fill:rgb(0%,0%,0%);fill-opacity:1;" d="M 956.722656 858.273438 C 956.722656 850.683594 953.707031 843.402344 948.34375 838.035156 C 942.976562 832.667969 935.695312 829.652344 928.105469 829.652344 C 920.515625 829.652344 913.238281 832.667969 907.871094 838.035156 C 902.503906 843.402344 899.488281 850.683594 899.488281 858.273438 C 899.488281 865.863281 902.503906 873.140625 907.871094 878.507812 C 913.238281 883.875 920.515625 886.890625 928.105469 886.890625 C 935.695312 886.890625 942.976562 883.875 948.34375 878.507812 C 953.707031 873.140625 956.722656 865.863281 956.722656 858.273438 Z M 956.722656 858.273438 "/>
<path style=" stroke:none;fill-rule:evenodd;fill:rgb(0%,0%,0%);fill-opacity:1;" d="M 861.328125 1023.5 C 861.328125 1015.910156 858.316406 1008.628906 852.949219 1003.265625 C 847.582031 997.898438 840.300781 994.882812 832.710938 994.882812 C 825.121094 994.882812 817.84375 997.898438 812.476562 1003.265625 C 807.109375 1008.628906 804.09375 1015.910156 804.09375 1023.5 C 804.09375 1031.089844 807.109375 1038.371094 812.476562 1043.734375 C 817.84375 1049.101562 825.121094 1052.117188 832.710938 1052.117188 C 840.300781 1052.117188 847.582031 1049.101562 852.949219 1043.734375 C 858.316406 1038.371094 861.328125 1031.089844 861.328125 1023.5 Z M 861.328125 1023.5 "/>
<path style=" stroke:none;fill-rule:evenodd;fill:rgb(0%,0%,0%);fill-opacity:1;" d="M 956.722656 1188.726562 C 956.722656 1181.136719 953.707031 1173.859375 948.34375 1168.492188 C 942.976562 1163.125 935.695312 1160.109375 928.105469 1160.109375 C 920.515625 1160.109375 913.238281 1163.125 907.871094 1168.492188 C 902.503906 1173.859375 899.488281 1181.136719 899.488281 1188.726562 C 899.488281 1196.316406 902.503906 1203.597656 907.871094 1208.964844 C 913.238281 1214.332031 920.515625 1217.347656 928.105469 1217.347656 C 935.695312 1217.347656 942.976562 1214.332031 948.34375 1208.964844 C 953.707031 1203.597656 956.722656 1196.316406 956.722656 1188.726562 Z M 956.722656 1188.726562 "/>
<path style=" stroke:none;fill-rule:evenodd;fill:rgb(0%,0%,0%);fill-opacity:1;" d="M 1147.511719 1188.726562 C 1147.511719 1181.136719 1144.496094 1173.859375 1139.128906 1168.492188 C 1133.761719 1163.125 1126.484375 1160.109375 1118.894531 1160.109375 C 1111.304688 1160.109375 1104.023438 1163.125 1098.65625 1168.492188 C 1093.292969 1173.859375 1090.277344 1181.136719 1090.277344 1188.726562 C 1090.277344 1196.316406 1093.292969 1203.597656 1098.65625 1208.964844 C 1104.023438 1214.332031 1111.304688 1217.347656 1118.894531 1217.347656 C 1126.484375 1217.347656 1133.761719 1214.332031 1139.128906 1208.964844 C 1144.496094 1203.597656 1147.511719 1196.316406 1147.511719 1188.726562 Z M 1147.511719 1188.726562 "/>
<path style=" stroke:none;fill-rule:evenodd;fill:rgb(0%,0%,0%);fill-opacity:1;" d="M 1242.90625 1023.5 C 1242.90625 1015.910156 1239.890625 1008.628906 1234.523438 1003.265625 C 1229.15625 997.898438 1221.878906 994.882812 1214.289062 994.882812 C 1206.699219 994.882812 1199.417969 997.898438 1194.050781 1003.265625 C 1188.683594 1008.628906 1185.671875 1015.910156 1185.671875 1023.5 C 1185.671875 1031.089844 1188.683594 1038.371094 1194.050781 1043.734375 C 1199.417969 1049.101562 1206.699219 1052.117188 1214.289062 1052.117188 C 1221.878906 1052.117188 1229.15625 1049.101562 1234.523438 1043.734375 C 1239.890625 1038.371094 1242.90625 1031.089844 1242.90625 1023.5 Z M 1242.90625 1023.5 "/>
<path style=" stroke:none;fill-rule:evenodd;fill:rgb(0%,0%,0%);fill-opacity:1;" d="M 1433.695312 1023.5 C 1433.695312 1015.910156 1430.679688 1008.628906 1425.3125 1003.265625 C 1419.945312 997.898438 1412.667969 994.882812 1405.078125 994.882812 C 1397.488281 994.882812 1390.207031 997.898438 1384.839844 1003.265625 C 1379.472656 1008.628906 1376.457031 1015.910156 1376.457031 1023.5 C 1376.457031 1031.089844 1379.472656 1038.371094 1384.839844 1043.734375 C 1390.207031 1049.101562 1397.488281 1052.117188 1405.078125 1052.117188 C 1412.667969 1052.117188 1419.945312 1049.101562 1425.3125 1043.734375 C 1430.679688 1038.371094 1433.695312 1031.089844 1433.695312 1023.5 Z M 1433.695312 1023.5 "/>
<path style=" stroke:none;fill-rule:evenodd;fill:rgb(0%,0%,0%);fill-opacity:1;" d="M 1382.574219 832.710938 C 1382.574219 825.121094 1379.558594 817.84375 1374.191406 812.476562 C 1368.824219 807.109375 1361.546875 804.09375 1353.957031 804.09375 C 1346.363281 804.09375 1339.085938 807.109375 1333.71875 812.476562 C 1328.351562 817.84375 1325.335938 825.121094 1325.335938 832.710938 C 1325.335938 840.300781 1328.351562 847.582031 1333.71875 852.949219 C 1339.085938 858.316406 1346.363281 861.328125 1353.957031 861.328125 C 1361.546875 861.328125 1368.824219 858.316406 1374.191406 852.949219 C 1379.558594 847.582031 1382.574219 840.300781 1382.574219 832.710938 Z M 1382.574219 832.710938 "/>
<path style=" stroke:none;fill-rule:evenodd;fill:rgb(0%,0%,0%);fill-opacity:1;" d="M 1242.90625 693.042969 C 1242.90625 685.453125 1239.890625 678.175781 1234.523438 672.808594 C 1229.15625 667.441406 1221.878906 664.425781 1214.289062 664.425781 C 1206.699219 664.425781 1199.417969 667.441406 1194.050781 672.808594 C 1188.683594 678.175781 1185.671875 685.453125 1185.671875 693.042969 C 1185.671875 700.636719 1188.683594 707.914062 1194.050781 713.28125 C 1199.417969 718.648438 1206.699219 721.664062 1214.289062 721.664062 C 1221.878906 721.664062 1229.15625 718.648438 1234.523438 713.28125 C 1239.890625 707.914062 1242.90625 700.636719 1242.90625 693.042969 Z M 1242.90625 693.042969 "/>
<path style=" stroke:none;fill-rule:evenodd;fill:rgb(0%,0%,0%);fill-opacity:1;" d="M 1052.117188 641.921875 C 1052.117188 634.332031 1049.101562 627.054688 1043.734375 621.6875 C 1038.371094 616.320312 1031.089844 613.304688 1023.5 613.304688 C 1015.910156 613.304688 1008.628906 616.320312 1003.265625 621.6875 C 997.898438 627.054688 994.882812 634.332031 994.882812 641.921875 C 994.882812 649.511719 997.898438 656.792969 1003.265625 662.160156 C 1008.628906 667.527344 1015.910156 670.542969 1023.5 670.542969 C 1031.089844 670.542969 1038.371094 667.527344 1043.734375 662.160156 C 1049.101562 656.792969 1052.117188 649.511719 1052.117188 641.921875 Z M 1052.117188 641.921875 "/>
<path style=" stroke:none;fill-rule:evenodd;fill:rgb(0%,0%,0%);fill-opacity:1;" d="M 861.328125 693.042969 C 861.328125 685.453125 858.316406 678.175781 852.949219 672.808594 C 847.582031 667.441406 840.300781 664.425781 832.710938 664.425781 C 825.121094 664.425781 817.84375 667.441406 812.476562 672.808594 C 807.109375 678.175781 804.09375 685.453125 804.09375 693.042969 C 804.09375 700.636719 807.109375 707.914062 812.476562 713.28125 C 817.84375 718.648438 825.121094 721.664062 832.710938 721.664062 C 840.300781 721.664062 847.582031 718.648438 852.949219 713.28125 C 858.316406 707.914062 861.328125 700.636719 861.328125 693.042969 Z M 861.328125 693.042969 "/>
<path style=" stroke:none;fill-rule:evenodd;fill:rgb(0%,0%,0%);fill-opacity:1;" d="M 721.664062 832.710938 C 721.664062 825.121094 718.648438 817.84375 713.28125 812.476562 C 707.914062 807.109375 700.636719 804.09375 693.042969 804.09375 C 685.453125 804.09375 678.175781 807.109375 672.808594 812.476562 C 667.441406 817.84375 664.425781 825.121094 664.425781 832.710938 C 664.425781 840.300781 667.441406 847.582031 672.808594 852.949219 C 678.175781 858.316406 685.453125 861.328125 693.042969 861.328125 C 700.636719 861.328125 707.914062 858.316406 713.28125 852.949219 C 718.648438 847.582031 721.664062 840.300781 721.664062 832.710938 Z M 721.664062 832.710938 "/>
<path style=" stroke:none;fill-rule:evenodd;fill:rgb(0%,0%,0%);fill-opacity:1;" d="M 670.542969 1023.5 C 670.542969 1015.910156 667.527344 1008.628906 662.160156 1003.265625 C 656.792969 997.898438 649.511719 994.882812 641.921875 994.882812 C 634.332031 994.882812 627.054688 997.898438 621.6875 1003.265625 C 616.320312 1008.628906 613.304688 1015.910156 613.304688 1023.5 C 613.304688 1031.089844 616.320312 1038.371094 621.6875 1043.734375 C 627.054688 1049.101562 634.332031 1052.117188 641.921875 1052.117188 C 649.511719 1052.117188 656.792969 1049.101562 662.160156 1043.734375 C 667.527344 1038.371094 670.542969 1031.089844 670.542969 1023.5 Z M 670.542969 1023.5 "/>
<path style=" stroke:none;fill-rule:evenodd;fill:rgb(0%,0%,0%);fill-opacity:1;" d="M 721.664062 1214.289062 C 721.664062 1206.699219 718.648438 1199.417969 713.28125 1194.050781 C 707.914062 1188.683594 700.636719 1185.671875 693.042969 1185.671875 C 685.453125 1185.671875 678.175781 1188.683594 672.808594 1194.050781 C 667.441406 1199.417969 664.425781 1206.699219 664.425781 1214.289062 C 664.425781 1221.878906 667.441406 1229.15625 672.808594 1234.523438 C 678.175781 1239.890625 685.453125 1242.90625 693.042969 1242.90625 C 700.636719 1242.90625 707.914062 1239.890625 713.28125 1234.523438 C 718.648438 1229.15625 721.664062 1221.878906 721.664062 1214.289062 Z M 721.664062 1214.289062 "/>
<path style=" stroke:none;fill-rule:evenodd;fill:rgb(0%,0%,0%);fill-opacity:1;" d="M 861.328125 1353.957031 C 861.328125 1346.363281 858.316406 1339.085938 852.949219 1333.71875 C 847.582031 1328.351562 840.300781 1325.335938 832.710938 1325.335938 C 825.121094 1325.335938 817.84375 1328.351562 812.476562 1333.71875 C 807.109375 1339.085938 804.09375 1346.363281 804.09375 1353.957031 C 804.09375 1361.546875 807.109375 1368.824219 812.476562 1374.191406 C 817.84375 1379.558594 825.121094 1382.574219 832.710938 1382.574219 C 840.300781 1382.574219 847.582031 1379.558594 852.949219 1374.191406 C 858.316406 1368.824219 861.328125 1361.546875 861.328125 1353.957031 Z M 861.328125 1353.957031 "/>
<path style=" stroke:none;fill-rule:evenodd;fill:rgb(0%,0%,0%);fill-opacity:1;" d="M 1052.117188 1405.078125 C 1052.117188 1397.488281 1049.101562 1390.207031 1043.734375 1384.839844 C 1038.371094 1379.472656 1031.089844 1376.457031 1023.5 1376.457031 C 1015.910156 1376.457031 1008.628906 1379.472656 1003.265625 1384.839844 C 997.898438 1390.207031 994.882812 1397.488281 994.882812 1405.078125 C 994.882812 1412.667969 997.898438 1419.945312 1003.265625 1425.3125 C 1008.628906 1430.679688 1015.910156 1433.695312 1023.5 1433.695312 C 1031.089844 1433.695312 1038.371094 1430.679688 1043.734375 1425.3125 C 1049.101562 1419.945312 1052.117188 1412.667969 1052.117188 1405.078125 Z M 1052.117188 1405.078125 "/>
<path style=" stroke:none;fill-rule:evenodd;fill:rgb(0%,0%,0%);fill-opacity:1;" d="M 1242.90625 1353.957031 C 1242.90625 1346.363281 1239.890625 1339.085938 1234.523438 1333.71875 C 1229.15625 1328.351562 1221.878906 1325.335938 1214.289062 1325.335938 C 1206.699219 1325.335938 1199.417969 1328.351562 1194.050781 1333.71875 C 1188.683594 1339.085938 1185.671875 1346.363281 1185.671875 1353.957031 C 1185.671875 1361.546875 1188.683594 1368.824219 1194.050781 1374.191406 C 1199.417969 1379.558594 1206.699219 1382.574219 1214.289062 1382.574219 C 1221.878906 1382.574219 1229.15625 1379.558594 1234.523438 1374.191406 C 1239.890625 1368.824219 1242.90625 1361.546875 1242.90625 1353.957031 Z M 1242.90625 1353.957031 "/>
<path style=" stroke:none;fill-rule:evenodd;fill:rgb(0%,0%,0%);fill-opacity:1;" d="M 1382.574219 1214.289062 C 1382.574219 1206.699219 1379.558594 1199.417969 1374.191406 1194.050781 C 1368.824219 1188.683594 1361.546875 1185.671875 1353.957031 1185.671875 C 1346.363281 1185.671875 1339.085938 1188.683594 1333.71875 1194.050781 C 1328.351562 1199.417969 1325.335938 1206.699219 1325.335938 1214.289062 C 1325.335938 1221.878906 1328.351562 1229.15625 1333.71875 1234.523438 C 1339.085938 1239.890625 1346.363281 1242.90625 1353.957031 1242.90625 C 1361.546875 1242.90625 1368.824219 1239.890625 1374.191406 1234.523438 C 1379.558594 1229.15625 1382.574219 1221.878906 1382.574219 1214.289062 Z M 1382.574219 1214.289062 "/>
<path style=" stroke:none;fill-rule:evenodd;fill:rgb(0%,0%,0%);fill-opacity:1;" d="M 1433.695312 1023.5 C 1433.695312 1015.910156 1430.679688 1008.628906 1425.3125 1003.265625 C 1419.945312 997.898438 1412.667969 994.882812 1405.078125 994.882812 C 1397.488281 994.882812 1390.207031 997.898438 1384.839844 1003.265625 C 1379.472656 1008.628906 1376.457031 1015.910156 1376.457031 1023.5 C 1376.457031 1031.089844 1379.472656 1038.371094 1384.839844 1043.734375 C 1390.207031 1049.101562 1397.488281 1052.117188 1405.078125 1052.117188 C 1412.667969 1052.117188 1419.945312 1049.101562 1425.3125 1043.734375 C 1430.679688 1038.371094 1433.695312 1031.089844 1433.695312 1023.5 Z M 1433.695312 1023.5 "/>
<path style=" stroke:none;fill-rule:evenodd;fill:rgb(0%,0%,0%);fill-opacity:1;" d="M 1624.484375 1023.5 C 1624.484375 1015.910156 1621.46875 1008.628906 1616.101562 1003.265625 C 1610.734375 997.898438 1603.457031 994.882812 1595.863281 994.882812 C 1588.273438 994.882812 1580.996094 997.898438 1575.628906 1003.265625 C 1570.261719 1008.628906 1567.246094 1015.910156 1567.246094 1023.5 C 1567.246094 1031.089844 1570.261719 1038.371094 1575.628906 1043.734375 C 1580.996094 1049.101562 1588.273438 1052.117188 1595.863281 1052.117188 C 1603.457031 1052.117188 1610.734375 1049.101562 1616.101562 1043.734375 C 1621.46875 1038.371094 1624.484375 1031.089844 1624.484375 1023.5 Z M 1624.484375 1023.5 "/>
<path style=" stroke:none;fill-rule:evenodd;fill:rgb(0%,0%,0%);fill-opacity:1;" d="M 1589.964844 827.738281 C 1589.964844 820.148438 1586.949219 812.871094 1581.582031 807.503906 C 1576.214844 802.136719 1568.9375 799.121094 1561.347656 799.121094 C 1553.757812 799.121094 1546.476562 802.136719 1541.109375 807.503906 C 1535.742188 812.871094 1532.730469 820.148438 1532.730469 827.738281 C 1532.730469 835.328125 1535.742188 842.609375 1541.109375 847.976562 C 1546.476562 853.34375 1553.757812 856.359375 1561.347656 856.359375 C 1568.9375 856.359375 1576.214844 853.34375 1581.582031 847.976562 C 1586.949219 842.609375 1589.964844 835.328125 1589.964844 827.738281 Z M 1589.964844 827.738281 "/>
<path style=" stroke:none;fill-rule:evenodd;fill:rgb(0%,0%,0%);fill-opacity:1;" d="M 1490.574219 655.589844 C 1490.574219 648 1487.558594 640.722656 1482.191406 635.355469 C 1476.828125 629.988281 1469.546875 626.972656 1461.957031 626.972656 C 1454.367188 626.972656 1447.085938 629.988281 1441.722656 635.355469 C 1436.355469 640.722656 1433.339844 648 1433.339844 655.589844 C 1433.339844 663.179688 1436.355469 670.460938 1441.722656 675.828125 C 1447.085938 681.195312 1454.367188 684.210938 1461.957031 684.210938 C 1469.546875 684.210938 1476.828125 681.195312 1482.191406 675.828125 C 1487.558594 670.460938 1490.574219 663.179688 1490.574219 655.589844 Z M 1490.574219 655.589844 "/>
<path style=" stroke:none;fill-rule:evenodd;fill:rgb(0%,0%,0%);fill-opacity:1;" d="M 1338.300781 527.816406 C 1338.300781 520.226562 1335.285156 512.949219 1329.917969 507.582031 C 1324.550781 502.214844 1317.273438 499.199219 1309.683594 499.199219 C 1302.09375 499.199219 1294.8125 502.214844 1289.445312 507.582031 C 1284.078125 512.949219 1281.0625 520.226562 1281.0625 527.816406 C 1281.0625 535.40625 1284.078125 542.6875 1289.445312 548.054688 C 1294.8125 553.421875 1302.09375 556.4375 1309.683594 556.4375 C 1317.273438 556.4375 1324.550781 553.421875 1329.917969 548.054688 C 1335.285156 542.6875 1338.300781 535.40625 1338.300781 527.816406 Z M 1338.300781 527.816406 "/>
<path style=" stroke:none;fill-rule:evenodd;fill:rgb(0%,0%,0%);fill-opacity:1;" d="M 1151.507812 459.832031 C 1151.507812 452.242188 1148.492188 444.960938 1143.125 439.59375 C 1137.757812 434.226562 1130.480469 431.210938 1122.890625 431.210938 C 1115.300781 431.210938 1108.019531 434.226562 1102.652344 439.59375 C 1097.285156 444.960938 1094.273438 452.242188 1094.273438 459.832031 C 1094.273438 467.421875 1097.285156 474.699219 1102.652344 480.066406 C 1108.019531 485.433594 1115.300781 488.449219 1122.890625 488.449219 C 1130.480469 488.449219 1137.757812 485.433594 1143.125 480.066406 C 1148.492188 474.699219 1151.507812 467.421875 1151.507812 459.832031 Z M 1151.507812 459.832031 "/>
<path style=" stroke:none;fill-rule:evenodd;fill:rgb(0%,0%,0%);fill-opacity:1;" d="M 952.726562 459.832031 C 952.726562 452.242188 949.714844 444.960938 944.347656 439.59375 C 938.980469 434.226562 931.699219 431.210938 924.109375 431.210938 C 916.519531 431.210938 909.242188 434.226562 903.875 439.59375 C 898.507812 444.960938 895.492188 452.242188 895.492188 459.832031 C 895.492188 467.421875 898.507812 474.699219 903.875 480.066406 C 909.242188 485.433594 916.519531 488.449219 924.109375 488.449219 C 931.699219 488.449219 938.980469 485.433594 944.347656 480.066406 C 949.714844 474.699219 952.726562 467.421875 952.726562 459.832031 Z M 952.726562 459.832031 "/>
<path style=" stroke:none;fill-rule:evenodd;fill:rgb(0%,0%,0%);fill-opacity:1;" d="M 765.9375 527.816406 C 765.9375 520.226562 762.921875 512.949219 757.554688 507.582031 C 752.1875 502.214844 744.90625 499.199219 737.316406 499.199219 C 729.726562 499.199219 722.449219 502.214844 717.082031 507.582031 C 711.714844 512.949219 708.699219 520.226562 708.699219 527.816406 C 708.699219 535.40625 711.714844 542.6875 717.082031 548.054688 C 722.449219 553.421875 729.726562 556.4375 737.316406 556.4375 C 744.90625 556.4375 752.1875 553.421875 757.554688 548.054688 C 762.921875 542.6875 765.9375 535.40625 765.9375 527.816406 Z M 765.9375 527.816406 "/>
<path style=" stroke:none;fill-rule:evenodd;fill:rgb(0%,0%,0%);fill-opacity:1;" d="M 613.660156 655.589844 C 613.660156 648 610.644531 640.722656 605.277344 635.355469 C 599.914062 629.988281 592.632812 626.972656 585.042969 626.972656 C 577.453125 626.972656 570.171875 629.988281 564.808594 635.355469 C 559.441406 640.722656 556.425781 648 556.425781 655.589844 C 556.425781 663.179688 559.441406 670.460938 564.808594 675.828125 C 570.171875 681.195312 577.453125 684.210938 585.042969 684.210938 C 592.632812 684.210938 599.914062 681.195312 605.277344 675.828125 C 610.644531 670.460938 613.660156 663.179688 613.660156 655.589844 Z M 613.660156 655.589844 "/>
<path style=" stroke:none;fill-rule:evenodd;fill:rgb(0%,0%,0%);fill-opacity:1;" d="M 514.269531 827.738281 C 514.269531 820.148438 511.257812 812.871094 505.890625 807.503906 C 500.523438 802.136719 493.242188 799.121094 485.652344 799.121094 C 478.0625 799.121094 470.785156 802.136719 465.417969 807.503906 C 460.050781 812.871094 457.035156 820.148438 457.035156 827.738281 C 457.035156 835.328125 460.050781 842.609375 465.417969 847.976562 C 470.785156 853.34375 478.0625 856.359375 485.652344 856.359375 C 493.242188 856.359375 500.523438 853.34375 505.890625 847.976562 C 511.257812 842.609375 514.269531 835.328125 514.269531 827.738281 Z M 514.269531 827.738281 "/>
<path style=" stroke:none;fill-rule:evenodd;fill:rgb(0%,0%,0%);fill-opacity:1;" d="M 479.753906 1023.5 C 479.753906 1015.910156 476.738281 1008.628906 471.371094 1003.265625 C 466.003906 997.898438 458.726562 994.882812 451.136719 994.882812 C 443.542969 994.882812 436.265625 997.898438 430.898438 1003.265625 C 425.53125 1008.628906 422.515625 1015.910156 422.515625 1023.5 C 422.515625 1031.089844 425.53125 1038.371094 430.898438 1043.734375 C 436.265625 1049.101562 443.542969 1052.117188 451.136719 1052.117188 C 458.726562 1052.117188 466.003906 1049.101562 471.371094 1043.734375 C 476.738281 1038.371094 479.753906 1031.089844 479.753906 1023.5 Z M 479.753906 1023.5 "/>
<path style=" stroke:none;fill-rule:evenodd;fill:rgb(0%,0%,0%);fill-opacity:1;" d="M 514.269531 1219.261719 C 514.269531 1211.671875 511.257812 1204.390625 505.890625 1199.023438 C 500.523438 1193.65625 493.242188 1190.640625 485.652344 1190.640625 C 478.0625 1190.640625 470.785156 1193.65625 465.417969 1199.023438 C 460.050781 1204.390625 457.035156 1211.671875 457.035156 1219.261719 C 457.035156 1226.851562 460.050781 1234.128906 465.417969 1239.496094 C 470.785156 1244.863281 478.0625 1247.878906 485.652344 1247.878906 C 493.242188 1247.878906 500.523438 1244.863281 505.890625 1239.496094 C 511.257812 1234.128906 514.269531 1226.851562 514.269531 1219.261719 Z M 514.269531 1219.261719 "/>
<path style=" stroke:none;fill-rule:evenodd;fill:rgb(0%,0%,0%);fill-opacity:1;" d="M 613.660156 1391.410156 C 613.660156 1383.820312 610.644531 1376.539062 605.277344 1371.171875 C 599.914062 1365.804688 592.632812 1362.789062 585.042969 1362.789062 C 577.453125 1362.789062 570.171875 1365.804688 564.808594 1371.171875 C 559.441406 1376.539062 556.425781 1383.820312 556.425781 1391.410156 C 556.425781 1399 559.441406 1406.277344 564.808594 1411.644531 C 570.171875 1417.011719 577.453125 1420.027344 585.042969 1420.027344 C 592.632812 1420.027344 599.914062 1417.011719 605.277344 1411.644531 C 610.644531 1406.277344 613.660156 1399 613.660156 1391.410156 Z M 613.660156 1391.410156 "/>
<path style=" stroke:none;fill-rule:evenodd;fill:rgb(0%,0%,0%);fill-opacity:1;" d="M 765.9375 1519.183594 C 765.9375 1511.59375 762.921875 1504.3125 757.554688 1498.945312 C 752.1875 1493.578125 744.90625 1490.5625 737.316406 1490.5625 C 729.726562 1490.5625 722.449219 1493.578125 717.082031 1498.945312 C 711.714844 1504.3125 708.699219 1511.59375 708.699219 1519.183594 C 708.699219 1526.773438 711.714844 1534.050781 717.082031 1539.417969 C 722.449219 1544.785156 729.726562 1547.800781 737.316406 1547.800781 C 744.90625 1547.800781 752.1875 1544.785156 757.554688 1539.417969 C 762.921875 1534.050781 765.9375 1526.773438 765.9375 1519.183594 Z M 765.9375 1519.183594 "/>
<path style=" stroke:none;fill-rule:evenodd;fill:rgb(0%,0%,0%);fill-opacity:1;" d="M 952.726562 1587.167969 C 952.726562 1579.578125 949.714844 1572.300781 944.347656 1566.933594 C 938.980469 1561.566406 931.699219 1558.550781 924.109375 1558.550781 C 916.519531 1558.550781 909.242188 1561.566406 903.875 1566.933594 C 898.507812 1572.300781 895.492188 1579.578125 895.492188 1587.167969 C 895.492188 1594.757812 898.507812 1602.039062 903.875 1607.40625 C 909.242188 1612.773438 916.519531 1615.789062 924.109375 1615.789062 C 931.699219 1615.789062 938.980469 1612.773438 944.347656 1607.40625 C 949.714844 1602.039062 952.726562 1594.757812 952.726562 1587.167969 Z M 952.726562 1587.167969 "/>
<path style=" stroke:none;fill-rule:evenodd;fill:rgb(0%,0%,0%);fill-opacity:1;" d="M 1151.507812 1587.167969 C 1151.507812 1579.578125 1148.492188 1572.300781 1143.125 1566.933594 C 1137.757812 1561.566406 1130.480469 1558.550781 1122.890625 1558.550781 C 1115.300781 1558.550781 1108.019531 1561.566406 1102.652344 1566.933594 C 1097.285156 1572.300781 1094.273438 1579.578125 1094.273438 1587.167969 C 1094.273438 1594.757812 1097.285156 1602.039062 1102.652344 1607.40625 C 1108.019531 1612.773438 1115.300781 1615.789062 1122.890625 1615.789062 C 1130.480469 1615.789062 1137.757812 1612.773438 1143.125 1607.40625 C 1148.492188 1602.039062 1151.507812 1594.757812 1151.507812 1587.167969 Z M 1151.507812 1587.167969 "/>
<path style=" stroke:none;fill-rule:evenodd;fill:rgb(0%,0%,0%);fill-opacity:1;" d="M 1338.300781 1519.183594 C 1338.300781 1511.59375 1335.285156 1504.3125 1329.917969 1498.945312 C 1324.550781 1493.578125 1317.273438 1490.5625 1309.683594 1490.5625 C 1302.09375 1490.5625 1294.8125 1493.578125 1289.445312 1498.945312 C 1284.078125 1504.3125 1281.0625 1511.59375 1281.0625 1519.183594 C 1281.0625 1526.773438 1284.078125 1534.050781 1289.445312 1539.417969 C 1294.8125 1544.785156 1302.09375 1547.800781 1309.683594 1547.800781 C 1317.273438 1547.800781 1324.550781 1544.785156 1329.917969 1539.417969 C 1335.285156 1534.050781 1338.300781 1526.773438 1338.300781 1519.183594 Z M 1338.300781 1519.183594 "/>
<path style=" stroke:none;fill-rule:evenodd;fill:rgb(0%,0%,0%);fill-opacity:1;" d="M 1490.574219 1391.410156 C 1490.574219 1383.820312 1487.558594 1376.539062 1482.191406 1371.171875 C 1476.828125 1365.804688 1469.546875 1362.789062 1461.957031 1362.789062 C 1454.367188 1362.789062 1447.085938 1365.804688 1441.722656 1371.171875 C 1436.355469 1376.539062 1433.339844 1383.820312 1433.339844 1391.410156 C 1433.339844 1399 1436.355469 1406.277344 1441.722656 1411.644531 C 1447.085938 1417.011719 1454.367188 1420.027344 1461.957031 1420.027344 C 1469.546875 1420.027344 1476.828125 1417.011719 1482.191406 1411.644531 C 1487.558594 1406.277344 1490.574219 1399 1490.574219 1391.410156 Z M 1490.574219 1391.410156 "/>
<path style=" stroke:none;fill-rule:evenodd;fill:rgb(0%,0%,0%);fill-opacity:1;" d="M 1589.964844 1219.261719 C 1589.964844 1211.671875 1586.949219 1204.390625 1581.582031 1199.023438 C 1576.214844 1193.65625 1568.9375 1190.640625 1561.347656 1190.640625 C 1553.757812 1190.640625 1546.476562 1193.65625 1541.109375 1199.023438 C 1535.742188 1204.390625 1532.730469 1211.671875 1532.730469 1219.261719 C 1532.730469 1226.851562 1535.742188 1234.128906 1541.109375 1239.496094 C 1546.476562 1244.863281 1553.757812 1247.878906 1561.347656 1247.878906 C 1568.9375 1247.878906 1576.214844 1244.863281 1581.582031 1239.496094 C 1586.949219 1234.128906 1589.964844 1226.851562 1589.964844 1219.261719 Z M 1589.964844 1219.261719 "/>
<path style=" stroke:none;fill-rule:evenodd;fill:rgb(0%,0%,0%);fill-opacity:1;" d="M 1624.484375 1023.5 C 1624.484375 1015.910156 1621.46875 1008.628906 1616.101562 1003.265625 C 1610.734375 997.898438 1603.457031 994.882812 1595.863281 994.882812 C 1588.273438 994.882812 1580.996094 997.898438 1575.628906 1003.265625 C 1570.261719 1008.628906 1567.246094 1015.910156 1567.246094 1023.5 C 1567.246094 1031.089844 1570.261719 1038.371094 1575.628906 1043.734375 C 1580.996094 1049.101562 1588.273438 1052.117188 1595.863281 1052.117188 C 1603.457031 1052.117188 1610.734375 1049.101562 1616.101562 1043.734375 C 1621.46875 1038.371094 1624.484375 1031.089844 1624.484375 1023.5 Z M 1624.484375 1023.5 "/>
<path style=" stroke:none;fill-rule:evenodd;fill:rgb(0%,0%,0%);fill-opacity:1;" d="M 1815.273438 1023.5 C 1815.273438 1015.910156 1812.257812 1008.628906 1806.890625 1003.265625 C 1801.523438 997.898438 1794.242188 994.882812 1786.652344 994.882812 C 1779.0625 994.882812 1771.785156 997.898438 1766.417969 1003.265625 C 1761.050781 1008.628906 1758.035156 1015.910156 1758.035156 1023.5 C 1758.035156 1031.089844 1761.050781 1038.371094 1766.417969 1043.734375 C 1771.785156 1049.101562 1779.0625 1052.117188 1786.652344 1052.117188 C 1794.242188 1052.117188 1801.523438 1049.101562 1806.890625 1043.734375 C 1812.257812 1038.371094 1815.273438 1031.089844 1815.273438 1023.5 Z M 1815.273438 1023.5 "/>
<path style=" stroke:none;fill-rule:evenodd;fill:rgb(0%,0%,0%);fill-opacity:1;" d="M 1789.269531 825.980469 C 1789.269531 818.390625 1786.253906 811.113281 1780.886719 805.746094 C 1775.519531 800.378906 1768.238281 797.363281 1760.648438 797.363281 C 1753.058594 797.363281 1745.78125 800.378906 1740.414062 805.746094 C 1735.046875 811.113281 1732.03125 818.390625 1732.03125 825.980469 C 1732.03125 833.570312 1735.046875 840.851562 1740.414062 846.21875 C 1745.78125 851.585938 1753.058594 854.601562 1760.648438 854.601562 C 1768.238281 854.601562 1775.519531 851.585938 1780.886719 846.21875 C 1786.253906 840.851562 1789.269531 833.570312 1789.269531 825.980469 Z M 1789.269531 825.980469 "/>
<path style=" stroke:none;fill-rule:evenodd;fill:rgb(0%,0%,0%);fill-opacity:1;" d="M 1713.027344 641.921875 C 1713.027344 634.332031 1710.011719 627.054688 1704.644531 621.6875 C 1699.28125 616.320312 1692 613.304688 1684.410156 613.304688 C 1676.820312 613.304688 1669.542969 616.320312 1664.175781 621.6875 C 1658.808594 627.054688 1655.792969 634.332031 1655.792969 641.921875 C 1655.792969 649.511719 1658.808594 656.792969 1664.175781 662.160156 C 1669.542969 667.527344 1676.820312 670.542969 1684.410156 670.542969 C 1692 670.542969 1699.28125 667.527344 1704.644531 662.160156 C 1710.011719 656.792969 1713.027344 649.511719 1713.027344 641.921875 Z M 1713.027344 641.921875 "/>
<path style=" stroke:none;fill-rule:evenodd;fill:rgb(0%,0%,0%);fill-opacity:1;" d="M 1591.75 483.867188 C 1591.75 476.277344 1588.734375 469 1583.367188 463.632812 C 1578 458.265625 1570.722656 455.25 1563.132812 455.25 C 1555.539062 455.25 1548.261719 458.265625 1542.894531 463.632812 C 1537.527344 469 1534.511719 476.277344 1534.511719 483.867188 C 1534.511719 491.460938 1537.527344 498.738281 1542.894531 504.105469 C 1548.261719 509.472656 1555.539062 512.488281 1563.132812 512.488281 C 1570.722656 512.488281 1578 509.472656 1583.367188 504.105469 C 1588.734375 498.738281 1591.75 491.460938 1591.75 483.867188 Z M 1591.75 483.867188 "/>
<path style=" stroke:none;fill-rule:evenodd;fill:rgb(0%,0%,0%);fill-opacity:1;" d="M 1433.695312 362.589844 C 1433.695312 355 1430.679688 347.71875 1425.3125 342.355469 C 1419.945312 336.988281 1412.667969 333.972656 1405.078125 333.972656 C 1397.488281 333.972656 1390.207031 336.988281 1384.839844 342.355469 C 1379.472656 347.71875 1376.457031 355 1376.457031 362.589844 C 1376.457031 370.179688 1379.472656 377.457031 1384.839844 382.824219 C 1390.207031 388.191406 1397.488281 391.207031 1405.078125 391.207031 C 1412.667969 391.207031 1419.945312 388.191406 1425.3125 382.824219 C 1430.679688 377.457031 1433.695312 370.179688 1433.695312 362.589844 Z M 1433.695312 362.589844 "/>
<path style=" stroke:none;fill-rule:evenodd;fill:rgb(0%,0%,0%);fill-opacity:1;" d="M 1249.636719 286.351562 C 1249.636719 278.761719 1246.621094 271.480469 1241.253906 266.113281 C 1235.886719 260.746094 1228.609375 257.730469 1221.019531 257.730469 C 1213.429688 257.730469 1206.148438 260.746094 1200.78125 266.113281 C 1195.414062 271.480469 1192.398438 278.761719 1192.398438 286.351562 C 1192.398438 293.941406 1195.414062 301.21875 1200.78125 306.585938 C 1206.148438 311.953125 1213.429688 314.96875 1221.019531 314.96875 C 1228.609375 314.96875 1235.886719 311.953125 1241.253906 306.585938 C 1246.621094 301.21875 1249.636719 293.941406 1249.636719 286.351562 Z M 1249.636719 286.351562 "/>
<path style=" stroke:none;fill-rule:evenodd;fill:rgb(0%,0%,0%);fill-opacity:1;" d="M 1052.117188 260.347656 C 1052.117188 252.757812 1049.101562 245.476562 1043.734375 240.109375 C 1038.371094 234.742188 1031.089844 231.726562 1023.5 231.726562 C 1015.910156 231.726562 1008.628906 234.742188 1003.265625 240.109375 C 997.898438 245.476562 994.882812 252.757812 994.882812 260.347656 C 994.882812 267.9375 997.898438 275.214844 1003.265625 280.582031 C 1008.628906 285.949219 1015.910156 288.964844 1023.5 288.964844 C 1031.089844 288.964844 1038.371094 285.949219 1043.734375 280.582031 C 1049.101562 275.214844 1052.117188 267.9375 1052.117188 260.347656 Z M 1052.117188 260.347656 "/>
<path style=" stroke:none;fill-rule:evenodd;fill:rgb(0%,0%,0%);fill-opacity:1;" d="M 854.601562 286.351562 C 854.601562 278.761719 851.585938 271.480469 846.21875 266.113281 C 840.851562 260.746094 833.570312 257.730469 825.980469 257.730469 C 818.390625 257.730469 811.113281 260.746094 805.746094 266.113281 C 800.378906 271.480469 797.363281 278.761719 797.363281 286.351562 C 797.363281 293.941406 800.378906 301.21875 805.746094 306.585938 C 811.113281 311.953125 818.390625 314.96875 825.980469 314.96875 C 833.570312 314.96875 840.851562 311.953125 846.21875 306.585938 C 851.585938 301.21875 854.601562 293.941406 854.601562 286.351562 Z M 854.601562 286.351562 "/>
<path style=" stroke:none;fill-rule:evenodd;fill:rgb(0%,0%,0%);fill-opacity:1;" d="M 670.542969 362.589844 C 670.542969 355 667.527344 347.71875 662.160156 342.355469 C 656.792969 336.988281 649.511719 333.972656 641.921875 333.972656 C 634.332031 333.972656 627.054688 336.988281 621.6875 342.355469 C 616.320312 347.71875 613.304688 355 613.304688 362.589844 C 613.304688 370.179688 616.320312 377.457031 621.6875 382.824219 C 627.054688 388.191406 634.332031 391.207031 641.921875 391.207031 C 649.511719 391.207031 656.792969 388.191406 662.160156 382.824219 C 667.527344 377.457031 670.542969 370.179688 670.542969 362.589844 Z M 670.542969 362.589844 "/>
<path style=" stroke:none;fill-rule:evenodd;fill:rgb(0%,0%,0%);fill-opacity:1;" d="M 512.488281 483.867188 C 512.488281 476.277344 509.472656 469 504.105469 463.632812 C 498.738281 458.265625 491.460938 455.25 483.867188 455.25 C 476.277344 455.25 469 458.265625 463.632812 463.632812 C 458.265625 469 455.25 476.277344 455.25 483.867188 C 455.25 491.460938 458.265625 498.738281 463.632812 504.105469 C 469 509.472656 476.277344 512.488281 483.867188 512.488281 C 491.460938 512.488281 498.738281 509.472656 504.105469 504.105469 C 509.472656 498.738281 512.488281 491.460938 512.488281 483.867188 Z M 512.488281 483.867188 "/>
<path style=" stroke:none;fill-rule:evenodd;fill:rgb(0%,0%,0%);fill-opacity:1;" d="M 391.207031 641.921875 C 391.207031 634.332031 388.191406 627.054688 382.824219 621.6875 C 377.457031 616.320312 370.179688 613.304688 362.589844 613.304688 C 355 613.304688 347.71875 616.320312 342.355469 621.6875 C 336.988281 627.054688 333.972656 634.332031 333.972656 641.921875 C 333.972656 649.511719 336.988281 656.792969 342.355469 662.160156 C 347.71875 667.527344 355 670.542969 362.589844 670.542969 C 370.179688 670.542969 377.457031 667.527344 382.824219 662.160156 C 388.191406 656.792969 391.207031 649.511719 391.207031 641.921875 Z M 391.207031 641.921875 "/>
<path style=" stroke:none;fill-rule:evenodd;fill:rgb(0%,0%,0%);fill-opacity:1;" d="M 314.96875 825.980469 C 314.96875 818.390625 311.953125 811.113281 306.585938 805.746094 C 301.21875 800.378906 293.941406 797.363281 286.351562 797.363281 C 278.761719 797.363281 271.480469 800.378906 266.113281 805.746094 C 260.746094 811.113281 257.730469 818.390625 257.730469 825.980469 C 257.730469 833.570312 260.746094 840.851562 266.113281 846.21875 C 271.480469 851.585938 278.761719 854.601562 286.351562 854.601562 C 293.941406 854.601562 301.21875 851.585938 306.585938 846.21875 C 311.953125 840.851562 314.96875 833.570312 314.96875 825.980469 Z M 314.96875 825.980469 "/>
<path style=" stroke:none;fill-rule:evenodd;fill:rgb(0%,0%,0%);fill-opacity:1;" d="M 288.964844 1023.5 C 288.964844 1015.910156 285.949219 1008.628906 280.582031 1003.265625 C 275.214844 997.898438 267.9375 994.882812 260.347656 994.882812 C 252.757812 994.882812 245.476562 997.898438 240.109375 1003.265625 C 234.742188 1008.628906 231.726562 1015.910156 231.726562 1023.5 C 231.726562 1031.089844 234.742188 1038.371094 240.109375 1043.734375 C 245.476562 1049.101562 252.757812 1052.117188 260.347656 1052.117188 C 267.9375 1052.117188 275.214844 1049.101562 280.582031 1043.734375 C 285.949219 1038.371094 288.964844 1031.089844 288.964844 1023.5 Z M 288.964844 1023.5 "/>
<path style=" stroke:none;fill-rule:evenodd;fill:rgb(0%,0%,0%);fill-opacity:1;" d="M 314.96875 1221.019531 C 314.96875 1213.429688 311.953125 1206.148438 306.585938 1200.78125 C 301.21875 1195.414062 293.941406 1192.398438 286.351562 1192.398438 C 278.761719 1192.398438 271.480469 1195.414062 266.113281 1200.78125 C 260.746094 1206.148438 257.730469 1213.429688 257.730469 1221.019531 C 257.730469 1228.609375 260.746094 1235.886719 266.113281 1241.253906 C 271.480469 1246.621094 278.761719 1249.636719 286.351562 1249.636719 C 293.941406 1249.636719 301.21875 1246.621094 306.585938 1241.253906 C 311.953125 1235.886719 314.96875 1228.609375 314.96875 1221.019531 Z M 314.96875 1221.019531 "/>
<path style=" stroke:none;fill-rule:evenodd;fill:rgb(0%,0%,0%);fill-opacity:1;" d="M 391.207031 1405.078125 C 391.207031 1397.488281 388.191406 1390.207031 382.824219 1384.839844 C 377.457031 1379.472656 370.179688 1376.457031 362.589844 1376.457031 C 355 1376.457031 347.71875 1379.472656 342.355469 1384.839844 C 336.988281 1390.207031 333.972656 1397.488281 333.972656 1405.078125 C 333.972656 1412.667969 336.988281 1419.945312 342.355469 1425.3125 C 347.71875 1430.679688 355 1433.695312 362.589844 1433.695312 C 370.179688 1433.695312 377.457031 1430.679688 382.824219 1425.3125 C 388.191406 1419.945312 391.207031 1412.667969 391.207031 1405.078125 Z M 391.207031 1405.078125 "/>
<path style=" stroke:none;fill-rule:evenodd;fill:rgb(0%,0%,0%);fill-opacity:1;" d="M 512.488281 1563.132812 C 512.488281 1555.539062 509.472656 1548.261719 504.105469 1542.894531 C 498.738281 1537.527344 491.460938 1534.511719 483.867188 1534.511719 C 476.277344 1534.511719 469 1537.527344 463.632812 1542.894531 C 458.265625 1548.261719 455.25 1555.539062 455.25 1563.132812 C 455.25 1570.722656 458.265625 1578 463.632812 1583.367188 C 469 1588.734375 476.277344 1591.75 483.867188 1591.75 C 491.460938 1591.75 498.738281 1588.734375 504.105469 1583.367188 C 509.472656 1578 512.488281 1570.722656 512.488281 1563.132812 Z M 512.488281 1563.132812 "/>
<path style=" stroke:none;fill-rule:evenodd;fill:rgb(0%,0%,0%);fill-opacity:1;" d="M 670.542969 1684.410156 C 670.542969 1676.820312 667.527344 1669.542969 662.160156 1664.175781 C 656.792969 1658.808594 649.511719 1655.792969 641.921875 1655.792969 C 634.332031 1655.792969 627.054688 1658.808594 621.6875 1664.175781 C 616.320312 1669.542969 613.304688 1676.820312 613.304688 1684.410156 C 613.304688 1692 616.320312 1699.28125 621.6875 1704.644531 C 627.054688 1710.011719 634.332031 1713.027344 641.921875 1713.027344 C 649.511719 1713.027344 656.792969 1710.011719 662.160156 1704.644531 C 667.527344 1699.28125 670.542969 1692 670.542969 1684.410156 Z M 670.542969 1684.410156 "/>
<path style=" stroke:none;fill-rule:evenodd;fill:rgb(0%,0%,0%);fill-opacity:1;" d="M 854.601562 1760.648438 C 854.601562 1753.058594 851.585938 1745.78125 846.21875 1740.414062 C 840.851562 1735.046875 833.570312 1732.03125 825.980469 1732.03125 C 818.390625 1732.03125 811.113281 1735.046875 805.746094 1740.414062 C 800.378906 1745.78125 797.363281 1753.058594 797.363281 1760.648438 C 797.363281 1768.238281 800.378906 1775.519531 805.746094 1780.886719 C 811.113281 1786.253906 818.390625 1789.269531 825.980469 1789.269531 C 833.570312 1789.269531 840.851562 1786.253906 846.21875 1780.886719 C 851.585938 1775.519531 854.601562 1768.238281 854.601562 1760.648438 Z M 854.601562 1760.648438 "/>
<path style=" stroke:none;fill-rule:evenodd;fill:rgb(0%,0%,0%);fill-opacity:1;" d="M 1052.117188 1786.652344 C 1052.117188 1779.0625 1049.101562 1771.785156 1043.734375 1766.417969 C 1038.371094 1761.050781 1031.089844 1758.035156 1023.5 1758.035156 C 1015.910156 1758.035156 1008.628906 1761.050781 1003.265625 1766.417969 C 997.898438 1771.785156 994.882812 1779.0625 994.882812 1786.652344 C 994.882812 1794.242188 997.898438 1801.523438 1003.265625 1806.890625 C 1008.628906 1812.257812 1015.910156 1815.273438 1023.5 1815.273438 C 1031.089844 1815.273438 1038.371094 1812.257812 1043.734375 1806.890625 C 1049.101562 1801.523438 1052.117188 1794.242188 1052.117188 1786.652344 Z M 1052.117188 1786.652344 "/>
<path style=" stroke:none;fill-rule:evenodd;fill:rgb(0%,0%,0%);fill-opacity:1;" d="M 1249.636719 1760.648438 C 1249.636719 1753.058594 1246.621094 1745.78125 1241.253906 1740.414062 C 1235.886719 1735.046875 1228.609375 1732.03125 1221.019531 1732.03125 C 1213.429688 1732.03125 1206.148438 1735.046875 1200.78125 1740.414062 C 1195.414062 1745.78125 1192.398438 1753.058594 1192.398438 1760.648438 C 1192.398438 1768.238281 1195.414062 1775.519531 1200.78125 1780.886719 C 1206.148438 1786.253906 1213.429688 1789.269531 1221.019531 1789.269531 C 1228.609375 1789.269531 1235.886719 1786.253906 1241.253906 1780.886719 C 1246.621094 1775.519531 1249.636719 1768.238281 1249.636719 1760.648438 Z M 1249.636719 1760.648438 "/>
<path style=" stroke:none;fill-rule:evenodd;fill:rgb(0%,0%,0%);fill-opacity:1;" d="M 1433.695312 1684.410156 C 1433.695312 1676.820312 1430.679688 1669.542969 1425.3125 1664.175781 C 1419.945312 1658.808594 1412.667969 1655.792969 1405.078125 1655.792969 C 1397.488281 1655.792969 1390.207031 1658.808594 1384.839844 1664.175781 C 1379.472656 1669.542969 1376.457031 1676.820312 1376.457031 1684.410156 C 1376.457031 1692 1379.472656 1699.28125 1384.839844 1704.644531 C 1390.207031 1710.011719 1397.488281 1713.027344 1405.078125 1713.027344 C 1412.667969 1713.027344 1419.945312 1710.011719 1425.3125 1704.644531 C 1430.679688 1699.28125 1433.695312 1692 1433.695312 1684.410156 Z M 1433.695312 1684.410156 "/>
<path style=" stroke:none;fill-rule:evenodd;fill:rgb(0%,0%,0%);fill-opacity:1;" d="M 1591.75 1563.132812 C 1591.75 1555.539062 1588.734375 1548.261719 1583.367188 1542.894531 C 1578 1537.527344 1570.722656 1534.511719 1563.132812 1534.511719 C 1555.539062 1534.511719 1548.261719 1537.527344 1542.894531 1542.894531 C 1537.527344 1548.261719 1534.511719 1555.539062 1534.511719 1563.132812 C 1534.511719 1570.722656 1537.527344 1578 1542.894531 1583.367188 C 1548.261719 1588.734375 1555.539062 1591.75 1563.132812 1591.75 C 1570.722656 1591.75 1578 1588.734375 1583.367188 1583.367188 C 1588.734375 1578 1591.75 1570.722656 1591.75 1563.132812 Z M 1591.75 1563.132812 "/>
<path style=" stroke:none;fill-rule:evenodd;fill:rgb(0%,0%,0%);fill-opacity:1;" d="M 1713.027344 1405.078125 C 1713.027344 1397.488281 1710.011719 1390.207031 1704.644531 1384.839844 C 1699.28125 1379.472656 1692 1376.457031 1684.410156 1376.457031 C 1676.820312 1376.457031 1669.542969 1379.472656 1664.175781 1384.839844 C 1658.808594 1390.207031 1655.792969 1397.488281 1655.792969 1405.078125 C 1655.792969 1412.667969 1658.808594 1419.945312 1664.175781 1425.3125 C 1669.542969 1430.679688 1676.820312 1433.695312 1684.410156 1433.695312 C 1692 1433.695312 1699.28125 1430.679688 1704.644531 1425.3125 C 1710.011719 1419.945312 1713.027344 1412.667969 1713.027344 1405.078125 Z M 1713.027344 1405.078125 "/>
<path style=" stroke:none;fill-rule:evenodd;fill:rgb(0%,0%,0%);fill-opacity:1;" d="M 1789.269531 1221.019531 C 1789.269531 1213.429688 1786.253906 1206.148438 1780.886719 1200.78125 C 1775.519531 1195.414062 1768.238281 1192.398438 1760.648438 1192.398438 C 1753.058594 1192.398438 1745.78125 1195.414062 1740.414062 1200.78125 C 1735.046875 1206.148438 1732.03125 1213.429688 1732.03125 1221.019531 C 1732.03125 1228.609375 1735.046875 1235.886719 1740.414062 1241.253906 C 1745.78125 1246.621094 1753.058594 1249.636719 1760.648438 1249.636719 C 1768.238281 1249.636719 1775.519531 1246.621094 1780.886719 1241.253906 C 1786.253906 1235.886719 1789.269531 1228.609375 1789.269531 1221.019531 Z M 1789.269531 1221.019531 "/>
<path style=" stroke:none;fill-rule:evenodd;fill:rgb(0%,0%,0%);fill-opacity:1;" d="M 1815.273438 1023.5 C 1815.273438 1015.910156 1812.257812 1008.628906 1806.890625 1003.265625 C 1801.523438 997.898438 1794.242188 994.882812 1786.652344 994.882812 C 1779.0625 994.882812 1771.785156 997.898438 1766.417969 1003.265625 C 1761.050781 1008.628906 1758.035156 1015.910156 1758.035156 1023.5 C 1758.035156 1031.089844 1761.050781 1038.371094 1766.417969 1043.734375 C 1771.785156 1049.101562 1779.0625 1052.117188 1786.652344 1052.117188 C 1794.242188 1052.117188 1801.523438 1049.101562 1806.890625 1043.734375 C 1812.257812 1038.371094 1815.273438 1031.089844 1815.273438 1023.5 Z M 1815.273438 1023.5 "/>
<path style=" stroke:none;fill-rule:evenodd;fill:rgb(0%,0%,0%);fill-opacity:1;" d="M 2006.058594 1023.5 C 2006.058594 1015.910156 2003.042969 1008.628906 1997.679688 1003.265625 C 1992.3125 997.898438 1985.03125 994.882812 1977.441406 994.882812 C 1969.851562 994.882812 1962.574219 997.898438 1957.207031 1003.265625 C 1951.839844 1008.628906 1948.824219 1015.910156 1948.824219 1023.5 C 1948.824219 1031.089844 1951.839844 1038.371094 1957.207031 1043.734375 C 1962.574219 1049.101562 1969.851562 1052.117188 1977.441406 1052.117188 C 1985.03125 1052.117188 1992.3125 1049.101562 1997.679688 1043.734375 C 2003.042969 1038.371094 2006.058594 1031.089844 2006.058594 1023.5 Z M 2006.058594 1023.5 "/>
<path style=" stroke:none;fill-rule:evenodd;fill:rgb(0%,0%,0%);fill-opacity:1;" d="M 1985.214844 825.164062 C 1985.214844 817.574219 1982.199219 810.296875 1976.832031 804.929688 C 1971.464844 799.5625 1964.1875 796.546875 1956.597656 796.546875 C 1949.003906 796.546875 1941.726562 799.5625 1936.359375 804.929688 C 1930.992188 810.296875 1927.976562 817.574219 1927.976562 825.164062 C 1927.976562 832.753906 1930.992188 840.035156 1936.359375 845.402344 C 1941.726562 850.765625 1949.003906 853.78125 1956.597656 853.78125 C 1964.1875 853.78125 1971.464844 850.765625 1976.832031 845.402344 C 1982.199219 840.035156 1985.214844 832.753906 1985.214844 825.164062 Z M 1985.214844 825.164062 "/>
<path style=" stroke:none;fill-rule:evenodd;fill:rgb(0%,0%,0%);fill-opacity:1;" d="M 1923.585938 635.496094 C 1923.585938 627.90625 1920.574219 620.628906 1915.207031 615.261719 C 1909.839844 609.894531 1902.558594 606.878906 1894.96875 606.878906 C 1887.378906 606.878906 1880.101562 609.894531 1874.734375 615.261719 C 1869.367188 620.628906 1866.351562 627.90625 1866.351562 635.496094 C 1866.351562 643.085938 1869.367188 650.367188 1874.734375 655.734375 C 1880.101562 661.101562 1887.378906 664.113281 1894.96875 664.113281 C 1902.558594 664.113281 1909.839844 661.101562 1915.207031 655.734375 C 1920.574219 650.367188 1923.585938 643.085938 1923.585938 635.496094 Z M 1923.585938 635.496094 "/>
<path style=" stroke:none;fill-rule:evenodd;fill:rgb(0%,0%,0%);fill-opacity:1;" d="M 1823.875 462.785156 C 1823.875 455.195312 1820.859375 447.917969 1815.492188 442.550781 C 1810.125 437.183594 1802.84375 434.167969 1795.253906 434.167969 C 1787.664062 434.167969 1780.386719 437.183594 1775.019531 442.550781 C 1769.652344 447.917969 1766.636719 455.195312 1766.636719 462.785156 C 1766.636719 470.378906 1769.652344 477.65625 1775.019531 483.023438 C 1780.386719 488.390625 1787.664062 491.40625 1795.253906 491.40625 C 1802.84375 491.40625 1810.125 488.390625 1815.492188 483.023438 C 1820.859375 477.65625 1823.875 470.378906 1823.875 462.785156 Z M 1823.875 462.785156 "/>
<path style=" stroke:none;fill-rule:evenodd;fill:rgb(0%,0%,0%);fill-opacity:1;" d="M 1690.429688 314.582031 C 1690.429688 306.992188 1687.414062 299.714844 1682.046875 294.347656 C 1676.679688 288.980469 1669.402344 285.964844 1661.8125 285.964844 C 1654.222656 285.964844 1646.941406 288.980469 1641.574219 294.347656 C 1636.207031 299.714844 1633.195312 306.992188 1633.195312 314.582031 C 1633.195312 322.171875 1636.207031 329.453125 1641.574219 334.820312 C 1646.941406 340.1875 1654.222656 343.203125 1661.8125 343.203125 C 1669.402344 343.203125 1676.679688 340.1875 1682.046875 334.820312 C 1687.414062 329.453125 1690.429688 322.171875 1690.429688 314.582031 Z M 1690.429688 314.582031 "/>
<path style=" stroke:none;fill-rule:evenodd;fill:rgb(0%,0%,0%);fill-opacity:1;" d="M 1529.089844 197.363281 C 1529.089844 189.773438 1526.074219 182.492188 1520.707031 177.125 C 1515.339844 171.757812 1508.0625 168.742188 1500.472656 168.742188 C 1492.878906 168.742188 1485.601562 171.757812 1480.234375 177.125 C 1474.867188 182.492188 1471.851562 189.773438 1471.851562 197.363281 C 1471.851562 204.953125 1474.867188 212.230469 1480.234375 217.597656 C 1485.601562 222.964844 1492.878906 225.980469 1500.472656 225.980469 C 1508.0625 225.980469 1515.339844 222.964844 1520.707031 217.597656 C 1526.074219 212.230469 1529.089844 204.953125 1529.089844 197.363281 Z M 1529.089844 197.363281 "/>
<path style=" stroke:none;fill-rule:evenodd;fill:rgb(0%,0%,0%);fill-opacity:1;" d="M 1346.902344 116.246094 C 1346.902344 108.65625 1343.886719 101.378906 1338.519531 96.011719 C 1333.152344 90.644531 1325.875 87.628906 1318.285156 87.628906 C 1310.695312 87.628906 1303.414062 90.644531 1298.046875 96.011719 C 1292.679688 101.378906 1289.664062 108.65625 1289.664062 116.246094 C 1289.664062 123.835938 1292.679688 131.117188 1298.046875 136.484375 C 1303.414062 141.851562 1310.695312 144.867188 1318.285156 144.867188 C 1325.875 144.867188 1333.152344 141.851562 1338.519531 136.484375 C 1343.886719 131.117188 1346.902344 123.835938 1346.902344 116.246094 Z M 1346.902344 116.246094 "/>
<path style=" stroke:none;fill-rule:evenodd;fill:rgb(0%,0%,0%);fill-opacity:1;" d="M 1151.832031 74.785156 C 1151.832031 67.195312 1148.816406 59.914062 1143.449219 54.546875 C 1138.082031 49.179688 1130.804688 46.164062 1123.214844 46.164062 C 1115.625 46.164062 1108.34375 49.179688 1102.976562 54.546875 C 1097.609375 59.914062 1094.597656 67.195312 1094.597656 74.785156 C 1094.597656 82.375 1097.609375 89.652344 1102.976562 95.019531 C 1108.34375 100.386719 1115.625 103.402344 1123.214844 103.402344 C 1130.804688 103.402344 1138.082031 100.386719 1143.449219 95.019531 C 1148.816406 89.652344 1151.832031 82.375 1151.832031 74.785156 Z M 1151.832031 74.785156 "/>
<path style=" stroke:none;fill-rule:evenodd;fill:rgb(0%,0%,0%);fill-opacity:1;" d="M 952.402344 74.785156 C 952.402344 67.195312 949.390625 59.914062 944.023438 54.546875 C 938.65625 49.179688 931.375 46.164062 923.785156 46.164062 C 916.195312 46.164062 908.917969 49.179688 903.550781 54.546875 C 898.183594 59.914062 895.167969 67.195312 895.167969 74.785156 C 895.167969 82.375 898.183594 89.652344 903.550781 95.019531 C 908.917969 100.386719 916.195312 103.402344 923.785156 103.402344 C 931.375 103.402344 938.65625 100.386719 944.023438 95.019531 C 949.390625 89.652344 952.402344 82.375 952.402344 74.785156 Z M 952.402344 74.785156 "/>
<path style=" stroke:none;fill-rule:evenodd;fill:rgb(0%,0%,0%);fill-opacity:1;" d="M 757.335938 116.246094 C 757.335938 108.65625 754.320312 101.378906 748.953125 96.011719 C 743.585938 90.644531 736.304688 87.628906 728.714844 87.628906 C 721.125 87.628906 713.847656 90.644531 708.480469 96.011719 C 703.113281 101.378906 700.097656 108.65625 700.097656 116.246094 C 700.097656 123.835938 703.113281 131.117188 708.480469 136.484375 C 713.847656 141.851562 721.125 144.867188 728.714844 144.867188 C 736.304688 144.867188 743.585938 141.851562 748.953125 136.484375 C 754.320312 131.117188 757.335938 123.835938 757.335938 116.246094 Z M 757.335938 116.246094 "/>
<path style=" stroke:none;fill-rule:evenodd;fill:rgb(0%,0%,0%);fill-opacity:1;" d="M 575.148438 197.363281 C 575.148438 189.773438 572.132812 182.492188 566.765625 177.125 C 561.398438 171.757812 554.121094 168.742188 546.527344 168.742188 C 538.9375 168.742188 531.660156 171.757812 526.292969 177.125 C 520.925781 182.492188 517.910156 189.773438 517.910156 197.363281 C 517.910156 204.953125 520.925781 212.230469 526.292969 217.597656 C 531.660156 222.964844 538.9375 225.980469 546.527344 225.980469 C 554.121094 225.980469 561.398438 222.964844 566.765625 217.597656 C 572.132812 212.230469 575.148438 204.953125 575.148438 197.363281 Z M 575.148438 197.363281 "/>
<path style=" stroke:none;fill-rule:evenodd;fill:rgb(0%,0%,0%);fill-opacity:1;" d="M 413.804688 314.582031 C 413.804688 306.992188 410.792969 299.714844 405.425781 294.347656 C 400.058594 288.980469 392.777344 285.964844 385.1875 285.964844 C 377.597656 285.964844 370.320312 288.980469 364.953125 294.347656 C 359.585938 299.714844 356.570312 306.992188 356.570312 314.582031 C 356.570312 322.171875 359.585938 329.453125 364.953125 334.820312 C 370.320312 340.1875 377.597656 343.203125 385.1875 343.203125 C 392.777344 343.203125 400.058594 340.1875 405.425781 334.820312 C 410.792969 329.453125 413.804688 322.171875 413.804688 314.582031 Z M 413.804688 314.582031 "/>
<path style=" stroke:none;fill-rule:evenodd;fill:rgb(0%,0%,0%);fill-opacity:1;" d="M 280.363281 462.785156 C 280.363281 455.195312 277.347656 447.917969 271.980469 442.550781 C 266.613281 437.183594 259.335938 434.167969 251.746094 434.167969 C 244.15625 434.167969 236.875 437.183594 231.507812 442.550781 C 226.140625 447.917969 223.125 455.195312 223.125 462.785156 C 223.125 470.378906 226.140625 477.65625 231.507812 483.023438 C 236.875 488.390625 244.15625 491.40625 251.746094 491.40625 C 259.335938 491.40625 266.613281 488.390625 271.980469 483.023438 C 277.347656 477.65625 280.363281 470.378906 280.363281 462.785156 Z M 280.363281 462.785156 "/>
<path style=" stroke:none;fill-rule:evenodd;fill:rgb(0%,0%,0%);fill-opacity:1;" d="M 180.648438 635.496094 C 180.648438 627.90625 177.632812 620.628906 172.265625 615.261719 C 166.898438 609.894531 159.621094 606.878906 152.03125 606.878906 C 144.441406 606.878906 137.160156 609.894531 131.792969 615.261719 C 126.425781 620.628906 123.414062 627.90625 123.414062 635.496094 C 123.414062 643.085938 126.425781 650.367188 131.792969 655.734375 C 137.160156 661.101562 144.441406 664.113281 152.03125 664.113281 C 159.621094 664.113281 166.898438 661.101562 172.265625 655.734375 C 177.632812 650.367188 180.648438 643.085938 180.648438 635.496094 Z M 180.648438 635.496094 "/>
<path style=" stroke:none;fill-rule:evenodd;fill:rgb(0%,0%,0%);fill-opacity:1;" d="M 119.023438 825.164062 C 119.023438 817.574219 116.007812 810.296875 110.640625 804.929688 C 105.273438 799.5625 97.996094 796.546875 90.402344 796.546875 C 82.8125 796.546875 75.535156 799.5625 70.167969 804.929688 C 64.800781 810.296875 61.785156 817.574219 61.785156 825.164062 C 61.785156 832.753906 64.800781 840.035156 70.167969 845.402344 C 75.535156 850.765625 82.8125 853.78125 90.402344 853.78125 C 97.996094 853.78125 105.273438 850.765625 110.640625 845.402344 C 116.007812 840.035156 119.023438 832.753906 119.023438 825.164062 Z M 119.023438 825.164062 "/>
<path style=" stroke:none;fill-rule:evenodd;fill:rgb(0%,0%,0%);fill-opacity:1;" d="M 98.175781 1023.5 C 98.175781 1015.910156 95.160156 1008.628906 89.792969 1003.265625 C 84.425781 997.898438 77.148438 994.882812 69.558594 994.882812 C 61.96875 994.882812 54.6875 997.898438 49.320312 1003.265625 C 43.957031 1008.628906 40.941406 1015.910156 40.941406 1023.5 C 40.941406 1031.089844 43.957031 1038.371094 49.320312 1043.734375 C 54.6875 1049.101562 61.96875 1052.117188 69.558594 1052.117188 C 77.148438 1052.117188 84.425781 1049.101562 89.792969 1043.734375 C 95.160156 1038.371094 98.175781 1031.089844 98.175781 1023.5 Z M 98.175781 1023.5 "/>
<path style=" stroke:none;fill-rule:evenodd;fill:rgb(0%,0%,0%);fill-opacity:1;" d="M 119.023438 1221.835938 C 119.023438 1214.246094 116.007812 1206.964844 110.640625 1201.597656 C 105.273438 1196.234375 97.996094 1193.21875 90.402344 1193.21875 C 82.8125 1193.21875 75.535156 1196.234375 70.167969 1201.597656 C 64.800781 1206.964844 61.785156 1214.246094 61.785156 1221.835938 C 61.785156 1229.425781 64.800781 1236.703125 70.167969 1242.070312 C 75.535156 1247.4375 82.8125 1250.453125 90.402344 1250.453125 C 97.996094 1250.453125 105.273438 1247.4375 110.640625 1242.070312 C 116.007812 1236.703125 119.023438 1229.425781 119.023438 1221.835938 Z M 119.023438 1221.835938 "/>
<path style=" stroke:none;fill-rule:evenodd;fill:rgb(0%,0%,0%);fill-opacity:1;" d="M 180.648438 1411.503906 C 180.648438 1403.914062 177.632812 1396.632812 172.265625 1391.265625 C 166.898438 1385.898438 159.621094 1382.886719 152.03125 1382.886719 C 144.441406 1382.886719 137.160156 1385.898438 131.792969 1391.265625 C 126.425781 1396.632812 123.414062 1403.914062 123.414062 1411.503906 C 123.414062 1419.09375 126.425781 1426.371094 131.792969 1431.738281 C 137.160156 1437.105469 144.441406 1440.121094 152.03125 1440.121094 C 159.621094 1440.121094 166.898438 1437.105469 172.265625 1431.738281 C 177.632812 1426.371094 180.648438 1419.09375 180.648438 1411.503906 Z M 180.648438 1411.503906 "/>
<path style=" stroke:none;fill-rule:evenodd;fill:rgb(0%,0%,0%);fill-opacity:1;" d="M 280.363281 1584.214844 C 280.363281 1576.621094 277.347656 1569.34375 271.980469 1563.976562 C 266.613281 1558.609375 259.335938 1555.59375 251.746094 1555.59375 C 244.15625 1555.59375 236.875 1558.609375 231.507812 1563.976562 C 226.140625 1569.34375 223.125 1576.621094 223.125 1584.214844 C 223.125 1591.804688 226.140625 1599.082031 231.507812 1604.449219 C 236.875 1609.816406 244.15625 1612.832031 251.746094 1612.832031 C 259.335938 1612.832031 266.613281 1609.816406 271.980469 1604.449219 C 277.347656 1599.082031 280.363281 1591.804688 280.363281 1584.214844 Z M 280.363281 1584.214844 "/>
<path style=" stroke:none;fill-rule:evenodd;fill:rgb(0%,0%,0%);fill-opacity:1;" d="M 413.804688 1732.417969 C 413.804688 1724.828125 410.792969 1717.546875 405.425781 1712.179688 C 400.058594 1706.8125 392.777344 1703.796875 385.1875 1703.796875 C 377.597656 1703.796875 370.320312 1706.8125 364.953125 1712.179688 C 359.585938 1717.546875 356.570312 1724.828125 356.570312 1732.417969 C 356.570312 1740.007812 359.585938 1747.285156 364.953125 1752.652344 C 370.320312 1758.019531 377.597656 1761.035156 385.1875 1761.035156 C 392.777344 1761.035156 400.058594 1758.019531 405.425781 1752.652344 C 410.792969 1747.285156 413.804688 1740.007812 413.804688 1732.417969 Z M 413.804688 1732.417969 "/>
<path style=" stroke:none;fill-rule:evenodd;fill:rgb(0%,0%,0%);fill-opacity:1;" d="M 575.148438 1849.636719 C 575.148438 1842.046875 572.132812 1834.769531 566.765625 1829.402344 C 561.398438 1824.035156 554.121094 1821.019531 546.527344 1821.019531 C 538.9375 1821.019531 531.660156 1824.035156 526.292969 1829.402344 C 520.925781 1834.769531 517.910156 1842.046875 517.910156 1849.636719 C 517.910156 1857.226562 520.925781 1864.507812 526.292969 1869.875 C 531.660156 1875.242188 538.9375 1878.257812 546.527344 1878.257812 C 554.121094 1878.257812 561.398438 1875.242188 566.765625 1869.875 C 572.132812 1864.507812 575.148438 1857.226562 575.148438 1849.636719 Z M 575.148438 1849.636719 "/>
<path style=" stroke:none;fill-rule:evenodd;fill:rgb(0%,0%,0%);fill-opacity:1;" d="M 757.335938 1930.753906 C 757.335938 1923.164062 754.320312 1915.882812 748.953125 1910.515625 C 743.585938 1905.148438 736.304688 1902.132812 728.714844 1902.132812 C 721.125 1902.132812 713.847656 1905.148438 708.480469 1910.515625 C 703.113281 1915.882812 700.097656 1923.164062 700.097656 1930.753906 C 700.097656 1938.34375 703.113281 1945.621094 708.480469 1950.988281 C 713.847656 1956.355469 721.125 1959.371094 728.714844 1959.371094 C 736.304688 1959.371094 743.585938 1956.355469 748.953125 1950.988281 C 754.320312 1945.621094 757.335938 1938.34375 757.335938 1930.753906 Z M 757.335938 1930.753906 "/>
<path style=" stroke:none;fill-rule:evenodd;fill:rgb(0%,0%,0%);fill-opacity:1;" d="M 952.402344 1972.214844 C 952.402344 1964.625 949.390625 1957.347656 944.023438 1951.980469 C 938.65625 1946.613281 931.375 1943.597656 923.785156 1943.597656 C 916.195312 1943.597656 908.917969 1946.613281 903.550781 1951.980469 C 898.183594 1957.347656 895.167969 1964.625 895.167969 1972.214844 C 895.167969 1979.804688 898.183594 1987.085938 903.550781 1992.453125 C 908.917969 1997.820312 916.195312 2000.835938 923.785156 2000.835938 C 931.375 2000.835938 938.65625 1997.820312 944.023438 1992.453125 C 949.390625 1987.085938 952.402344 1979.804688 952.402344 1972.214844 Z M 952.402344 1972.214844 "/>
<path style=" stroke:none;fill-rule:evenodd;fill:rgb(0%,0%,0%);fill-opacity:1;" d="M 1151.832031 1972.214844 C 1151.832031 1964.625 1148.816406 1957.347656 1143.449219 1951.980469 C 1138.082031 1946.613281 1130.804688 1943.597656 1123.214844 1943.597656 C 1115.625 1943.597656 1108.34375 1946.613281 1102.976562 1951.980469 C 1097.609375 1957.347656 1094.597656 1964.625 1094.597656 1972.214844 C 1094.597656 1979.804688 1097.609375 1987.085938 1102.976562 1992.453125 C 1108.34375 1997.820312 1115.625 2000.835938 1123.214844 2000.835938 C 1130.804688 2000.835938 1138.082031 1997.820312 1143.449219 1992.453125 C 1148.816406 1987.085938 1151.832031 1979.804688 1151.832031 1972.214844 Z M 1151.832031 1972.214844 "/>
<path style=" stroke:none;fill-rule:evenodd;fill:rgb(0%,0%,0%);fill-opacity:1;" d="M 1346.902344 1930.753906 C 1346.902344 1923.164062 1343.886719 1915.882812 1338.519531 1910.515625 C 1333.152344 1905.148438 1325.875 1902.132812 1318.285156 1902.132812 C 1310.695312 1902.132812 1303.414062 1905.148438 1298.046875 1910.515625 C 1292.679688 1915.882812 1289.664062 1923.164062 1289.664062 1930.753906 C 1289.664062 1938.34375 1292.679688 1945.621094 1298.046875 1950.988281 C 1303.414062 1956.355469 1310.695312 1959.371094 1318.285156 1959.371094 C 1325.875 1959.371094 1333.152344 1956.355469 1338.519531 1950.988281 C 1343.886719 1945.621094 1346.902344 1938.34375 1346.902344 1930.753906 Z M 1346.902344 1930.753906 "/>
<path style=" stroke:none;fill-rule:evenodd;fill:rgb(0%,0%,0%);fill-opacity:1;" d="M 1529.089844 1849.636719 C 1529.089844 1842.046875 1526.074219 1834.769531 1520.707031 1829.402344 C 1515.339844 1824.035156 1508.0625 1821.019531 1500.472656 1821.019531 C 1492.878906 1821.019531 1485.601562 1824.035156 1480.234375 1829.402344 C 1474.867188 1834.769531 1471.851562 1842.046875 1471.851562 1849.636719 C 1471.851562 1857.226562 1474.867188 1864.507812 1480.234375 1869.875 C 1485.601562 1875.242188 1492.878906 1878.257812 1500.472656 1878.257812 C 1508.0625 1878.257812 1515.339844 1875.242188 1520.707031 1869.875 C 1526.074219 1864.507812 1529.089844 1857.226562 1529.089844 1849.636719 Z M 1529.089844 1849.636719 "/>
<path style=" stroke:none;fill-rule:evenodd;fill:rgb(0%,0%,0%);fill-opacity:1;" d="M 1690.429688 1732.417969 C 1690.429688 1724.828125 1687.414062 1717.546875 1682.046875 1712.179688 C 1676.679688 1706.8125 1669.402344 1703.796875 1661.8125 1703.796875 C 1654.222656 1703.796875 1646.941406 1706.8125 1641.574219 1712.179688 C 1636.207031 1717.546875 1633.195312 1724.828125 1633.195312 1732.417969 C 1633.195312 1740.007812 1636.207031 1747.285156 1641.574219 1752.652344 C 1646.941406 1758.019531 1654.222656 1761.035156 1661.8125 1761.035156 C 1669.402344 1761.035156 1676.679688 1758.019531 1682.046875 1752.652344 C 1687.414062 1747.285156 1690.429688 1740.007812 1690.429688 1732.417969 Z M 1690.429688 1732.417969 "/>
<path style=" stroke:none;fill-rule:evenodd;fill:rgb(0%,0%,0%);fill-opacity:1;" d="M 1823.875 1584.214844 C 1823.875 1576.621094 1820.859375 1569.34375 1815.492188 1563.976562 C 1810.125 1558.609375 1802.84375 1555.59375 1795.253906 1555.59375 C 1787.664062 1555.59375 1780.386719 1558.609375 1775.019531 1563.976562 C 1769.652344 1569.34375 1766.636719 1576.621094 1766.636719 1584.214844 C 1766.636719 1591.804688 1769.652344 1599.082031 1775.019531 1604.449219 C 1780.386719 1609.816406 1787.664062 1612.832031 1795.253906 1612.832031 C 1802.84375 1612.832031 1810.125 1609.816406 1815.492188 1604.449219 C 1820.859375 1599.082031 1823.875 1591.804688 1823.875 1584.214844 Z M 1823.875 1584.214844 "/>
<path style=" stroke:none;fill-rule:evenodd;fill:rgb(0%,0%,0%);fill-opacity:1;" d="M 1923.585938 1411.503906 C 1923.585938 1403.914062 1920.574219 1396.632812 1915.207031 1391.265625 C 1909.839844 1385.898438 1902.558594 1382.886719 1894.96875 1382.886719 C 1887.378906 1382.886719 1880.101562 1385.898438 1874.734375 1391.265625 C 1869.367188 1396.632812 1866.351562 1403.914062 1866.351562 1411.503906 C 1866.351562 1419.09375 1869.367188 1426.371094 1874.734375 1431.738281 C 1880.101562 1437.105469 1887.378906 1440.121094 1894.96875 1440.121094 C 1902.558594 1440.121094 1909.839844 1437.105469 1915.207031 1431.738281 C 1920.574219 1426.371094 1923.585938 1419.09375 1923.585938 1411.503906 Z M 1923.585938 1411.503906 "/>
<path style=" stroke:none;fill-rule:evenodd;fill:rgb(0%,0%,0%);fill-opacity:1;" d="M 1985.214844 1221.835938 C 1985.214844 1214.246094 1982.199219 1206.964844 1976.832031 1201.597656 C 1971.464844 1196.234375 1964.1875 1193.21875 1956.597656 1193.21875 C 1949.003906 1193.21875 1941.726562 1196.234375 1936.359375 1201.597656 C 1930.992188 1206.964844 1927.976562 1214.246094 1927.976562 1221.835938 C 1927.976562 1229.425781 1930.992188 1236.703125 1936.359375 1242.070312 C 1941.726562 1247.4375 1949.003906 1250.453125 1956.597656 1250.453125 C 1964.1875 1250.453125 1971.464844 1247.4375 1976.832031 1242.070312 C 1982.199219 1236.703125 1985.214844 1229.425781 1985.214844 1221.835938 Z M 1985.214844 1221.835938 "/>
<path style=" stroke:none;fill-rule:evenodd;fill:rgb(0%,0%,0%);fill-opacity:1;" d="M 2006.058594 1023.5 C 2006.058594 1015.910156 2003.042969 1008.628906 1997.679688 1003.265625 C 1992.3125 997.898438 1985.03125 994.882812 1977.441406 994.882812 C 1969.851562 994.882812 1962.574219 997.898438 1957.207031 1003.265625 C 1951.839844 1008.628906 1948.824219 1015.910156 1948.824219 1023.5 C 1948.824219 1031.089844 1951.839844 1038.371094 1957.207031 1043.734375 C 1962.574219 1049.101562 1969.851562 1052.117188 1977.441406 1052.117188 C 1985.03125 1052.117188 1992.3125 1049.101562 1997.679688 1043.734375 C 2003.042969 1038.371094 2006.058594 1031.089844 2006.058594 1023.5 Z M 2006.058594 1023.5 "/>
</g>
</svg>
