<?xml version="1.0" encoding="UTF-8" standalone="no"?>
<!DOCTYPE svg PUBLIC "-//W3C//DTD SVG 1.1//EN" "http://www.w3.org/Graphics/SVG/1.1/DTD/svg11.dtd">
<svg width="100%" height="100%" viewBox="0 0 2560 1440" version="1.1" xmlns="http://www.w3.org/2000/svg" xmlns:xlink="http://www.w3.org/1999/xlink" xml:space="preserve" xmlns:serif="http://www.serif.com/" style="fill-rule:evenodd;clip-rule:evenodd;stroke-linejoin:round;stroke-miterlimit:2;">
    <g transform="matrix(1.76237,0,0,1.76237,-361.627,-527.472)">
        <path d="M590.594,957.728L687.5,957.728C662.264,995.468 631.472,1029.19 596.307,1057.7L687.5,1057.7C658.038,1081.59 625.507,1101.83 590.594,1117.75L590.594,957.728ZM590.594,757.714L687.5,757.714C683.685,792.389 675.923,825.883 664.682,857.714L687.5,857.714C674.931,893.303 658.012,926.845 637.376,957.714L590.594,957.714L590.594,757.714ZM590.594,557.714L664.528,557.714C675.825,589.557 683.636,623.043 687.5,657.714L684.713,657.714C686.554,674.232 687.5,691.021 687.5,708.029C687.5,724.818 686.578,741.394 684.784,757.7L590.594,757.7L590.594,557.714ZM590.594,357.7L595.915,357.7C631.226,386.199 662.148,419.925 687.5,457.7L637.173,457.7C657.879,488.551 674.868,522.099 687.5,557.7L590.594,557.7L590.594,357.7ZM590.594,297.933C625.492,313.75 658.026,333.898 687.5,357.686L590.594,357.686L590.594,297.933Z" style="fill-opacity:0.37;"/>
    </g>
</svg>
